<?xml version="1.0" encoding="UTF-8"?><svg id="_レイヤー_1" xmlns="http://www.w3.org/2000/svg" viewBox="0 0 195.3 89.36"><defs><style>.cls-1{fill:#fff;}.cls-2{fill:#4e55a0;}</style></defs><g><path class="cls-2" d="M63.71,12.9c.48-.12,.97-.25,1.46-.38,.49-.12,.99-.23,1.5-.32,.51-.09,1.01-.13,1.49-.13,1.04,0,1.93,.23,2.67,.7s1.3,1.1,1.67,1.89c.37,.8,.55,1.66,.55,2.59,0,1.45-.26,3.11-.79,4.98-.53,1.87-1.29,3.77-2.27,5.71-.99,1.93-2.14,3.76-3.46,5.48-1.81,2.33-3.98,4.2-6.51,5.63-2.53,1.42-4.86,2.14-6.97,2.14-1.56,0-2.93-.43-4.12-1.28-1.19-.85-2.12-2.08-2.79-3.71-.67-1.62-1.01-3.52-1.01-5.71,0-2.94,.8-5.88,2.4-8.82s3.63-5.61,6.07-8c2.44-2.39,4.91-4.31,7.4-5.75s4.51-2.16,6.07-2.16c1.27,0,2.25,.39,2.93,1.17,.68,.78,1.32,2.04,1.91,3.77-1.67,.05-3.12,.25-4.35,.6-1.24,.35-2.52,.88-3.84,1.6Zm-6.77,5.45c-1.25,1.34-2.52,3.07-3.8,5.2-1.28,2.12-2.31,4.2-3.1,6.24s-1.18,3.6-1.18,4.67c0,2.67,1.24,4,3.73,4,1.74,0,3.98-1.17,6.73-3.52,2.75-2.35,5.14-5.17,7.17-8.47,2.03-3.3,3.05-6.31,3.05-9.01,0-1.99-.79-2.98-2.36-2.98-1.22,0-2.7,.48-4.46,1.45s-3.44,2.34-5.05,4.11c-.57,.64-1.71,2.22-3.41,4.73,.32-1.68,1.22-3.82,2.69-6.42Z"/><path class="cls-1" d="M69.38,10.06c.48-.12,.97-.25,1.46-.38,.49-.12,.99-.23,1.5-.32,.51-.09,1.01-.13,1.49-.13,1.04,0,1.93,.23,2.67,.7s1.3,1.1,1.67,1.89c.37,.8,.55,1.66,.55,2.59,0,1.45-.26,3.11-.79,4.98-.53,1.87-1.29,3.77-2.27,5.71-.99,1.93-2.14,3.76-3.46,5.48-1.81,2.33-3.98,4.2-6.51,5.63-2.53,1.42-4.86,2.14-6.97,2.14-1.56,0-2.93-.43-4.12-1.28-1.19-.85-2.12-2.08-2.79-3.71-.67-1.62-1.01-3.52-1.01-5.71,0-2.94,.8-5.88,2.4-8.82s3.63-5.61,6.07-8c2.44-2.39,4.91-4.31,7.4-5.75s4.51-2.16,6.07-2.16c1.27,0,2.25,.39,2.93,1.17,.68,.78,1.32,2.04,1.91,3.77-1.67,.05-3.12,.25-4.35,.6-1.24,.35-2.52,.88-3.84,1.6Zm-6.77,5.45c-1.25,1.34-2.52,3.07-3.8,5.2-1.28,2.12-2.31,4.2-3.1,6.24s-1.18,3.6-1.18,4.67c0,2.67,1.24,4,3.73,4,1.74,0,3.98-1.17,6.73-3.52,2.75-2.35,5.14-5.17,7.17-8.47,2.03-3.3,3.05-6.31,3.05-9.01,0-1.99-.79-2.98-2.36-2.98-1.22,0-2.7,.48-4.46,1.45s-3.44,2.34-5.05,4.11c-.57,.64-1.71,2.22-3.41,4.73,.32-1.68,1.22-3.82,2.69-6.42Z"/></g><g><path class="cls-2" d="M104.9,35.34c0-.41,.09-.99,.27-1.73,.18-.74,.42-1.32,.72-1.73,.77-1.09,1.48-2.09,2.12-3.01s1.22-1.7,1.72-2.36c.5-.66,1-1.25,1.5-1.77,3.06-3.31,5.25-5.79,6.58-7.43,1.33-1.64,1.99-2.78,1.99-3.42,0-.43-.2-.77-.59-1.01-.39-.24-.91-.36-1.56-.36-1.33,0-2.99,.47-5,1.41-2,.94-4.35,2.16-7.02,3.67s-4.17,2.26-4.47,2.26c-.48,0-.72-.35-.72-1.05,0-.59,.19-1.43,.56-2.52,.29-1.18,.52-2.1,.7-2.75,.18-.65,.48-1.24,.9-1.76,.42-.52,1.12-1.08,2.09-1.69,.98-.61,2.47-1.44,4.5-2.5l.27,.99c1.68-.68,3.27-1.2,4.77-1.56s2.77-.54,3.83-.54c2.08,0,3.55,.35,4.42,1.06,.87,.71,1.3,2.24,1.3,4.61,0,1.29-.19,2.36-.56,3.22s-1.11,2.06-2.2,3.6c-2.49,3.62-4.36,6.12-5.61,7.52-3.63,4.15-5.45,6.58-5.45,7.28,0,.39,.26,.59,.78,.59,.43,0,1.04-.3,1.83-.91s1.74-1.49,2.85-2.63,2.65-2.78,4.62-4.92c2.09-2.26,3.86-4.25,5.3-5.98,1.44-1.73,2.63-3.2,3.56-4.43s1.42-1.88,1.48-1.97c.97-1.18,1.96-2.15,2.99-2.91s1.69-1.14,1.97-1.14c.21,0,.47,.2,.75,.59,.29,.39,.53,.86,.74,1.4,.21,.54,.31,.95,.31,1.24,0,.09-.21,.52-.64,1.3-.43,.78-.9,1.58-1.4,2.42-.5,.83-1.31,2.11-2.42,3.83-2.44,3.78-4.3,6.95-5.59,9.52-1.29,2.57-1.93,4.26-1.93,5.06,0,.29,.1,.55,.31,.79,.21,.24,.42,.36,.63,.36,.29,0,.81-.23,1.56-.69,.75-.46,1.58-1.11,2.5-1.97,1.2-1.15,2.29-2.34,3.28-3.57,.98-1.24,1.96-2.61,2.93-4.14s1.83-2.96,2.58-4.32c.75-1.36,1.51-2.79,2.28-4.3l-.46-1.37c-.07-.21-.11-.49-.11-.83,0-.27,.53-1.14,1.58-2.62,1.06-1.48,1.75-2.22,2.09-2.22,.38,0,.69,.27,.95,.82s.39,1.1,.39,1.65c0,.61-.27,1.82-.82,3.64-.55,1.82-1.4,4.02-2.55,6.59-1.16,2.58-2.58,5.2-4.28,7.87-1.47,2.33-3.04,4.32-4.71,5.98s-3.18,2.89-4.53,3.69-2.34,1.21-2.98,1.21c-.73,0-1.5-.32-2.31-.97-.66-.57-1.13-1.09-1.41-1.54-.28-.46-.46-.95-.55-1.49s-.13-1.16-.13-1.88c0-1.52,.42-3.3,1.26-5.34s2.09-4.58,3.76-7.63c-5.21,6.34-9.24,10.95-12.1,13.83-2.86,2.88-4.95,4.32-6.27,4.32-.88,0-1.62-.52-2.23-1.57-.61-1.05-.91-2.3-.91-3.77Z"/><path class="cls-1" d="M110.57,32.51c0-.41,.09-.99,.27-1.73,.18-.74,.42-1.32,.72-1.73,.77-1.09,1.48-2.09,2.12-3.01s1.22-1.7,1.72-2.36c.5-.66,1-1.25,1.5-1.77,3.06-3.31,5.25-5.79,6.58-7.43,1.33-1.64,1.99-2.78,1.99-3.42,0-.43-.2-.77-.59-1.01-.39-.24-.91-.36-1.56-.36-1.33,0-2.99,.47-5,1.41-2,.94-4.35,2.16-7.02,3.67s-4.17,2.26-4.47,2.26c-.48,0-.72-.35-.72-1.05,0-.59,.19-1.43,.56-2.52,.29-1.18,.52-2.1,.7-2.75,.18-.65,.48-1.24,.9-1.76,.42-.52,1.12-1.08,2.09-1.69,.98-.61,2.47-1.44,4.5-2.5l.27,.99c1.68-.68,3.27-1.2,4.77-1.56s2.77-.54,3.83-.54c2.08,0,3.55,.35,4.42,1.06,.87,.71,1.3,2.24,1.3,4.61,0,1.29-.19,2.36-.56,3.22s-1.11,2.06-2.2,3.6c-2.49,3.62-4.36,6.12-5.61,7.52-3.63,4.15-5.45,6.58-5.45,7.28,0,.39,.26,.59,.78,.59,.43,0,1.04-.3,1.83-.91s1.74-1.49,2.85-2.63,2.65-2.78,4.62-4.92c2.09-2.26,3.86-4.25,5.3-5.98,1.44-1.73,2.63-3.2,3.56-4.43s1.42-1.88,1.48-1.97c.97-1.18,1.96-2.15,2.99-2.91s1.69-1.14,1.97-1.14c.21,0,.47,.2,.75,.59,.29,.39,.53,.86,.74,1.4,.21,.54,.31,.95,.31,1.24,0,.09-.21,.52-.64,1.3-.43,.78-.9,1.58-1.4,2.42-.5,.83-1.31,2.11-2.42,3.83-2.44,3.78-4.3,6.95-5.59,9.52-1.29,2.57-1.93,4.26-1.93,5.06,0,.29,.1,.55,.31,.79,.21,.24,.42,.36,.63,.36,.29,0,.81-.23,1.56-.69,.75-.46,1.58-1.11,2.5-1.97,1.2-1.15,2.29-2.34,3.28-3.57,.98-1.24,1.96-2.61,2.93-4.14s1.83-2.96,2.58-4.32c.75-1.36,1.51-2.79,2.28-4.3l-.46-1.37c-.07-.21-.11-.49-.11-.83,0-.27,.53-1.14,1.58-2.62,1.06-1.48,1.75-2.22,2.09-2.22,.38,0,.69,.27,.95,.82s.39,1.1,.39,1.65c0,.61-.27,1.82-.82,3.64-.55,1.82-1.4,4.02-2.55,6.59-1.16,2.58-2.58,5.2-4.28,7.87-1.47,2.33-3.04,4.32-4.71,5.98s-3.18,2.89-4.53,3.69-2.34,1.21-2.98,1.21c-.73,0-1.5-.32-2.31-.97-.66-.57-1.13-1.09-1.41-1.54-.28-.46-.46-.95-.55-1.49s-.13-1.16-.13-1.88c0-1.52,.42-3.3,1.26-5.34s2.09-4.58,3.76-7.63c-5.21,6.34-9.24,10.95-12.1,13.83-2.86,2.88-4.95,4.32-6.27,4.32-.88,0-1.62-.52-2.23-1.57-.61-1.05-.91-2.3-.91-3.77Z"/></g><g><path class="cls-2" d="M181.42,65.03l.83,.83c-1.47,1.84-2.75,3.19-3.85,4.03-1.1,.84-1.91,1.26-2.43,1.26-.43,0-.64-.38-.64-1.15,0-1.92,1.26-4.87,3.79-8.86,2.13-3.46,3.2-5.38,3.2-5.77,0-.34-.14-.51-.43-.51-.5,0-1.76,1.13-3.79,3.38-2.02,2.26-4.52,5.44-7.49,9.56-3.37,4.58-5.68,7.86-6.93,9.83,2.38,.23,4.34,.53,5.87,.9,1.53,.37,3.75,.96,6.66,1.79s5.05,1.31,6.43,1.45c-1.68,1.92-2.84,3.22-3.48,3.91s-1.12,1.11-1.46,1.25c-.54,.23-1.33,.25-2.39,.04-1.06-.21-2.73-.6-5.02-1.2s-4.44-1.08-6.43-1.48-3.82-.59-5.46-.59c-.93,0-1.73,.11-2.4,.32-.67,.21-1.6,.57-2.79,1.06-1.19,.49-2.03,.74-2.51,.74-.7,0-1.05-.29-1.05-.86,0-.32,.12-.69,.35-1.1,.59-.95,1.16-1.85,1.72-2.71,.56-.86,1.15-1.53,1.77-2.01s1.53-.86,2.71-1.13,2.74-.41,4.67-.43c2.92-4.48,5.64-8.45,8.16-11.91,2.52-3.46,4.82-6.39,6.89-8.77,2.07-2.38,3.88-4.19,5.44-5.41,1.56-1.23,2.79-1.84,3.71-1.84,.64,0,1.15,.18,1.5,.54s.54,.86,.54,1.5c0,2.15-1.89,6.6-5.67,13.35Z"/><path class="cls-1" d="M187.09,62.2l.83,.83c-1.47,1.84-2.75,3.19-3.85,4.03-1.1,.84-1.91,1.26-2.43,1.26-.43,0-.64-.38-.64-1.15,0-1.92,1.26-4.87,3.79-8.86,2.13-3.46,3.2-5.38,3.2-5.77,0-.34-.14-.51-.43-.51-.5,0-1.76,1.13-3.79,3.38-2.02,2.26-4.52,5.44-7.49,9.56-3.37,4.58-5.68,7.86-6.93,9.83,2.38,.23,4.34,.53,5.87,.9,1.53,.37,3.75,.96,6.66,1.79s5.05,1.31,6.43,1.45c-1.68,1.92-2.84,3.22-3.48,3.91s-1.12,1.11-1.46,1.25c-.54,.23-1.33,.25-2.39,.04-1.06-.21-2.73-.6-5.02-1.2s-4.44-1.08-6.43-1.48-3.82-.59-5.46-.59c-.93,0-1.73,.11-2.4,.32-.67,.21-1.6,.57-2.79,1.06-1.19,.49-2.03,.74-2.51,.74-.7,0-1.05-.29-1.05-.86,0-.32,.12-.69,.35-1.1,.59-.95,1.16-1.85,1.72-2.71,.56-.86,1.15-1.53,1.77-2.01s1.53-.86,2.71-1.13,2.74-.41,4.67-.43c2.92-4.48,5.64-8.45,8.16-11.91,2.52-3.46,4.82-6.39,6.89-8.77,2.07-2.38,3.88-4.19,5.44-5.41,1.56-1.23,2.79-1.84,3.71-1.84,.64,0,1.15,.18,1.5,.54s.54,.86,.54,1.5c0,2.15-1.89,6.6-5.67,13.35Z"/></g><path class="cls-1" d="M101.95,25.37v1.36c-2.35,2.62-4.51,4.78-6.48,6.48-1.97,1.7-3.89,3.01-5.76,3.93-1.88,.92-3.69,1.38-5.44,1.38-1.51,0-2.81-.3-3.89-.9-1.08-.6-1.9-1.48-2.46-2.63-.55-1.16-.83-2.52-.83-4.1,0-1.25,.2-2.57,.6-3.96,.4-1.39,.98-2.8,1.73-4.22,.76-1.42,1.68-2.89,2.78-4.4s2.39-3.1,3.87-4.77c1.54-1.72,3.06-3.21,4.56-4.46s2.86-2.24,4.07-2.95,2.35-1.25,3.39-1.6c1.04-.35,1.91-.52,2.59-.52s1.29,.17,1.78,.5,.87,.83,1.13,1.47,.4,1.39,.4,2.23c0,1.58-.54,3.34-1.62,5.28s-2.42,3.81-4.03,5.62-3.15,3.28-4.61,4.42-2.52,1.71-3.16,1.71c-.43,0-.84-.17-1.21-.51-.37-.34-.56-.73-.56-1.17,0-.8,.42-1.76,1.27-2.9s1.77-2.17,2.77-3.12c1-.94,1.6-1.42,1.79-1.42,.1,0,.15,.04,.15,.13,0,.13-.07,.34-.22,.65-.15,.31-.22,.5-.22,.57,0,.11,.04,.17,.13,.17,.24,0,.92-.64,2.06-1.91s2.17-2.68,3.12-4.21c.95-1.53,1.42-2.79,1.42-3.77,0-.41-.09-.72-.26-.93-.18-.22-.44-.33-.79-.33-.98,0-2.47,.79-4.46,2.38-2,1.59-4.04,3.61-6.13,6.07-2.09,2.46-3.84,4.99-5.24,7.61-1.4,2.62-2.1,4.92-2.1,6.91,0,1.15,.17,2.11,.51,2.88s.85,1.37,1.51,1.79,1.47,.63,2.4,.63c2.03,0,4.33-.79,6.91-2.37,2.58-1.58,5.41-3.91,8.5-6.99Z"/><path class="cls-1" d="M28.48,71.37v1.36c-2.35,2.62-4.51,4.78-6.48,6.48-1.97,1.7-3.89,3.01-5.76,3.93-1.88,.92-3.69,1.38-5.44,1.38-1.51,0-2.81-.3-3.89-.9-1.08-.6-1.9-1.48-2.46-2.63-.55-1.16-.83-2.52-.83-4.1,0-1.25,.2-2.57,.6-3.96,.4-1.39,.98-2.8,1.73-4.22,.76-1.42,1.68-2.89,2.78-4.4s2.39-3.1,3.87-4.77c1.54-1.72,3.06-3.21,4.56-4.46s2.86-2.24,4.07-2.95,2.35-1.25,3.39-1.6c1.04-.35,1.91-.52,2.59-.52s1.29,.17,1.78,.5,.87,.83,1.13,1.47,.4,1.39,.4,2.23c0,1.58-.54,3.34-1.62,5.28s-2.42,3.81-4.03,5.62-3.15,3.28-4.61,4.42-2.52,1.71-3.16,1.71c-.43,0-.84-.17-1.21-.51-.37-.34-.56-.73-.56-1.17,0-.8,.42-1.76,1.27-2.9s1.77-2.17,2.77-3.12c1-.94,1.6-1.42,1.79-1.42,.1,0,.15,.04,.15,.13,0,.13-.07,.34-.22,.65-.15,.31-.22,.5-.22,.57,0,.11,.04,.17,.13,.17,.24,0,.92-.64,2.06-1.91s2.17-2.68,3.12-4.21c.95-1.53,1.42-2.79,1.42-3.77,0-.41-.09-.72-.26-.93-.18-.22-.44-.33-.79-.33-.98,0-2.47,.79-4.46,2.38-2,1.59-4.04,3.61-6.13,6.07-2.09,2.46-3.84,4.99-5.24,7.61-1.4,2.62-2.1,4.92-2.1,6.91,0,1.15,.17,2.11,.51,2.88s.85,1.37,1.51,1.79,1.47,.63,2.4,.63c2.03,0,4.33-.79,6.91-2.37,2.58-1.58,5.41-3.91,8.5-6.99Z"/><path class="cls-1" d="M55.94,51.62v1.43c0,.59-.12,.96-.35,1.11-.23,.15-1.08,.57-2.54,1.24-1.46,.67-2.87,1.46-4.21,2.37,.52-.76,.99-1.32,1.42-1.68s1-.82,1.73-1.37c-.63-.25-1.5-.38-2.62-.38-1.74,0-3.61,.34-5.62,1.03s-3.72,1.5-5.12,2.46c-1.41,.95-2.11,1.75-2.11,2.39,0,.34,.21,.61,.64,.83,.43,.22,1.11,.39,2.06,.5,.94,.12,2.12,.2,3.54,.24,1.41,.04,3.16,.06,5.23,.06,1.51,0,2.48,.06,2.92,.17,.43,.11,.65,.37,.65,.78,0,.52-.25,1.11-.77,1.77-.51,.67-1.19,1.06-2.03,1.19-1.3,.21-2.34,.39-3.11,.54-.77,.15-1.68,.4-2.74,.75s-2.23,.85-3.52,1.51c-1.92,1.01-3.42,2.03-4.49,3.07-1.08,1.04-1.62,1.95-1.62,2.75,0,.69,.38,1.22,1.16,1.61,.77,.38,1.88,.58,3.32,.58,4.97,0,10.03-2.23,15.18-6.7,.03,1.37-.12,2.58-.45,3.62-.33,1.04-1,2.04-2,2.99-.84,.8-2.07,1.56-3.69,2.29-1.62,.73-3.38,1.31-5.29,1.74-1.91,.43-3.71,.65-5.38,.65-1.95,0-3.56-.47-4.83-1.4-1.27-.93-1.91-2.17-1.91-3.71,0-1.12,.31-2.23,.92-3.34s1.56-2.17,2.83-3.18c1.27-1.01,2.89-1.93,4.84-2.76,1.95-.83,4.2-1.48,6.75-1.95,.36-.07,.55-.18,.55-.34,0-.17-.21-.27-.64-.3s-1.21-.06-2.35-.07-2.15-.06-3.01-.15c-.87-.08-1.79-.27-2.75-.55-.99-.31-1.76-.85-2.3-1.62s-.81-1.62-.81-2.56c0-1.2,.43-2.42,1.3-3.63s2.09-2.32,3.67-3.3c1.58-.98,3.5-1.77,5.74-2.36,2.25-.59,4.71-.89,7.38-.89,1.54,0,2.61,.09,3.22,.26,.61,.17,.96,.41,1.06,.69,.1,.29,.15,.82,.15,1.61Z"/><path class="cls-1" d="M59.01,69.95c2.5-4.1,4.38-7.33,5.62-9.69,1.24-2.36,1.86-3.86,1.86-4.5,0-.24-.08-.43-.25-.59s-.36-.23-.59-.23c-.43,0-1.66,.42-3.67,1.26-1.67,.7-2.88,1.26-3.65,1.67-.77,.41-1.83,1-3.18,1.77-1.35,.77-2.12,1.16-2.32,1.16-.39,0-.59-.27-.59-.82,0-1.04,.68-2.43,2.04-4.18s3.18-3.28,5.48-4.6c.28-.18,.42-.17,.42,.04,0,.07-.17,.23-.5,.48s-.63,.51-.89,.77c-.26,.26-.55,.65-.87,1.17,2.94-1.47,5.1-2.51,6.48-3.11s2.56-.9,3.54-.9c.85,0,1.53,.18,2.02,.54,.49,.36,.73,.87,.73,1.54,0,.59-.23,1.44-.7,2.56s-1.15,2.48-2.05,4.08c-.9,1.6-1.81,3.19-2.74,4.76-.93,1.57-2.61,4.4-5.05,8.5,2.72-3.4,5.21-6.38,7.5-8.92,2.28-2.55,4.27-4.62,5.96-6.21,1.69-1.6,3.12-2.8,4.28-3.6,1.16-.8,2.02-1.21,2.56-1.21,.2,0,.43,.19,.69,.56,.27,.37,.5,.82,.71,1.35,.21,.53,.32,.97,.32,1.3,0,.92-.23,1.84-.7,2.75-.47,.91-1.17,2-2.09,3.28-2.63,3.56-4.55,6.35-5.76,8.4-1.21,2.04-1.82,3.69-1.82,4.93,0,.94,.49,1.41,1.47,1.41,.45,0,.97-.17,1.57-.5s1.32-.85,2.16-1.55,1.69-1.46,2.54-2.29l.04,1.64c-1.2,1.23-2.28,2.29-3.23,3.16s-1.85,1.64-2.7,2.3c-.85,.66-1.61,1.16-2.28,1.49s-1.26,.5-1.76,.5c-.73,0-1.31-.25-1.75-.75-.44-.5-.66-1.15-.66-1.96,0-.76,.17-1.67,.49-2.74,.33-1.07,.83-2.31,1.51-3.71,.68-1.4,1.52-2.92,2.52-4.56,1-1.64,2.13-3.34,3.39-5.12,1.23-1.76,1.85-2.9,1.85-3.4,0-.29-.15-.44-.46-.44-1.25,0-4.09,2.48-8.52,7.45-.28,.31-.77,.88-1.46,1.71-.69,.83-1.4,1.72-2.12,2.66-.72,.94-1.53,1.99-2.42,3.16-.9,1.17-1.81,2.36-2.73,3.56-.43,.57-.81,.86-1.11,.86-.34,0-.78-.27-1.32-.82s-.82-.94-.82-1.2c0-.29,.39-1.03,1.17-2.21,.78-1.18,1.4-2.16,1.88-2.96Z"/><path class="cls-1" d="M96.21,73.89l.69,.52c-.18,.39-.36,.74-.52,1.03s-.37,.65-.61,1.07-.42,.74-.55,.95c-1.05,1.83-2.04,2.75-2.96,2.75-.39,0-.73-.15-1.01-.46-.28-.31-.42-.73-.42-1.26,0-.76,.27-1.79,.81-3.11,.54-1.32,1.37-2.94,2.5-4.86s2.54-4.1,4.25-6.54c1.71-2.44,3.63-5,5.77-7.71-1.23-.18-2.69-.27-4.39-.27-1.95,0-4.11,.22-6.5,.65-2.39,.43-4.46,.93-6.24,1.5-1.77,.57-2.66,.98-2.66,1.25,0,.1,.04,.16,.11,.2,.07,.04,.19,.06,.35,.08,.16,.02,.37,.05,.62,.07,1.64,.22,2.46,.48,2.46,.76,0,.14-.36,.21-1.07,.2-.71,0-1.58,0-2.58,0-.8,0-1.38-.03-1.73-.09-.36-.06-.59-.18-.71-.36-.12-.17-.18-.44-.18-.81,0-.24,.07-.76,.21-1.55,.27-1.48,.67-2.67,1.23-3.57,.55-.9,1.4-1.63,2.54-2.19,1.14-.57,2.71-1.02,4.71-1.35,3.36-.57,6.14-.86,8.33-.86,1.62,0,2.9,.07,3.84,.2,.94,.13,1.63,.33,2.07,.58,.44,.25,.72,.5,.84,.75,.12,.25,.28,.67,.47,1.27l.65,1.93c.04,.13,.08,.23,.1,.3s.05,.16,.07,.24c.02,.08,.03,.16,.03,.23,0,.55-.12,1.04-.37,1.47-.24,.43-.69,1.08-1.34,1.95-.65,.87-1.13,1.55-1.44,2.04-3.61,5.87-6.08,10.2-7.39,13.02Z"/><path class="cls-1" d="M120,76.14l-7.92-3.86c-2.02,2.76-3.14,4.58-3.38,5.46-.17,.63-.54,1.16-1.12,1.58-.58,.43-1,.64-1.25,.64-.71,0-1.07-.27-1.07-.82,0-.31,.42-1.19,1.27-2.66s2.01-3.19,3.5-5.18c-.83-.34-1.34-.56-1.53-.67-.2-.11-.27-.33-.23-.64,.04-.31,.29-.81,.73-1.48,.39-.59,.69-.98,.88-1.19s.43-.36,.69-.48c.27-.12,.55-.2,.84-.24s1.12-.15,2.48-.31c1.11-1.5,2.31-3.11,3.6-4.85,1.29-1.74,2.31-3.09,3.03-4.05-2.2,.29-3.73,.54-4.6,.73-.92,.18-1.7,.33-2.32,.45-.62,.12-1.06,.22-1.31,.32s-.38,.22-.38,.39c0,.15,.15,.26,.46,.31,.31,.06,.7,.08,1.17,.08s.83,.02,1.09,.05,.39,.12,.39,.24c0,.14-.17,.22-.51,.24-.34,.02-1.31,.07-2.89,.14-.9,.03-1.65,.06-2.26,.08-.61,.03-1.03,.04-1.27,.04-.32,0-.57-.1-.76-.29-.18-.2-.27-.45-.27-.78,0-.24,.13-.68,.4-1.32,.27-.64,.64-1.29,1.13-1.95,.49-.66,1.05-1.17,1.68-1.53,.71-.43,1.82-.87,3.33-1.31,1.5-.44,3.18-.8,5.02-1.07,1.84-.27,3.66-.41,5.47-.41,1.09,0,2.16,.06,3.2,.19,1.04,.13,1.99,.28,2.83,.46,.85,.18,1.51,.36,2,.55,1.27,.42,2.25,1.06,2.93,1.91,.68,.85,1.02,1.79,1.02,2.81s-.17,1.96-.51,2.91c-.34,.95-.87,1.82-1.57,2.62s-1.56,1.46-2.55,1.96c-.81,.42-2.04,.85-3.7,1.28-1.65,.43-3.65,.82-5.98,1.15s-4.95,.58-7.83,.74c2.16,.76,4.17,1.51,6.04,2.28,1.87,.76,3.44,1.44,4.72,2.04,1.28,.59,2.29,1.08,3.01,1.46,1.02,.53,1.69,.92,1.99,1.16s.51,.55,.61,.92c.1,.38,.15,1,.15,1.87,0,.98-.06,1.7-.18,2.17-.12,.47-.37,.7-.77,.7-.13,0-.46-.14-1-.41-.54-.27-1.28-.67-2.24-1.2-.95-.53-1.82-.99-2.59-1.41-.78-.41-2-1.02-3.68-1.84Zm1.85-18.96c.01,.1,.02,.19,.03,.27,0,.08,.01,.2,.01,.36,0,.39-.12,.84-.37,1.35-.25,.51-.56,1.04-.95,1.58-.38,.54-.96,1.31-1.72,2.31-.76,1-1.47,1.92-2.11,2.76,2.94-.56,5.45-1.1,7.53-1.62,2.08-.52,3.79-1.04,5.13-1.56,1.34-.53,2.36-1.08,3.03-1.66,.68-.58,1.02-1.19,1.02-1.82,0-.7-.71-1.25-2.13-1.65-1.42-.4-3.16-.6-5.22-.6-.42,0-.86,.01-1.33,.03-.47,.02-1.03,.06-1.68,.13-.65,.06-1.07,.1-1.25,.12Z"/><path class="cls-1" d="M150.61,69.42c-1.68,.06-2.91,.08-3.7,.08-1.2,0-2.87-.03-5-.08-.45,.49-.99,1.07-1.64,1.73s-1.25,1.28-1.83,1.85c-.57,.57-1.07,1.05-1.48,1.45-.41,.4-.75,.73-1.02,1-1.55,1.51-2.56,2.5-3.03,2.96-.47,.46-.96,.88-1.48,1.25-.52,.37-.99,.56-1.43,.56-.49,0-.74-.22-.74-.67,0-.49,.35-1.25,1.05-2.27,.7-1.02,1.49-1.92,2.37-2.71s1.6-1.18,2.16-1.18c.15,0,.37,.07,.65,.21l3.99-4.26c-.5-.07-1.16-.12-1.97-.14-.81-.02-1.36-.08-1.64-.18-.28-.1-.42-.34-.42-.71,0-.6,.64-1.55,1.93-2.83,.7-.71,1.36-1.17,1.97-1.36,.62-.2,1.79-.3,3.53-.32-1.02,.14-1.75,.3-2.17,.49-.43,.19-.66,.47-.7,.85h1.12c.34,0,.79,0,1.34-.01,.55,0,.96-.02,1.23-.03,2.3-2.24,4.38-4.19,6.26-5.85,1.88-1.66,3.85-3.23,5.93-4.72,2.08-1.49,4.29-2.86,6.65-4.1,.46,.6,.69,1.23,.69,1.89,0,.55-.18,1.18-.54,1.89-.36,.71-1.11,2.05-2.27,4.02-1.15,1.97-2.33,4.06-3.52,6.27,.39,0,.72,0,.98,0,.26,0,.54,.02,.83,.03,.8,0,1.28,.01,1.46,.04s.26,.17,.26,.42c0,.11-.11,.31-.33,.6-.22,.29-.6,.76-1.14,1.43-.55,.67-1.08,1.34-1.6,2.03l-3.09,.25c-1.64,3.08-2.46,4.82-2.46,5.21,0,.57,.3,.86,.9,.86,.29,0,1.51-.62,3.65-1.85l-.17,1.11c-1.15,.87-2.04,1.55-2.68,2.05-.64,.5-1.19,.91-1.66,1.24-.47,.33-.9,.57-1.28,.73-.38,.16-.77,.24-1.17,.24-.46,0-.92-.21-1.37-.64s-.67-1.03-.67-1.82c0-.32,.12-.78,.36-1.38,.24-.59,.49-1.17,.77-1.71,.27-.55,.96-1.85,2.07-3.93Zm-3.97-4.77l6.8-.13c.8-1.36,1.45-2.46,1.94-3.3,.5-.84,1.04-1.75,1.64-2.74,.59-.99,1.11-1.82,1.53-2.51,.43-.69,.9-1.46,1.42-2.33-1.01,.63-2.04,1.33-3.09,2.1s-2.23,1.7-3.55,2.78c-1.32,1.08-2.48,2.09-3.51,3.02-1.02,.93-2.09,1.96-3.19,3.1Z"/></svg>